<svg xmlns="http://www.w3.org/2000/svg" viewBox="0 0 1200 760" role="img" aria-labelledby="title desc">
  <title id="title">pkiler AI PDF slide reader cover</title>
  <desc id="desc">A dark interface showing PDF slides transformed into AI explanations.</desc>
  <defs>
    <linearGradient id="bg" x1="0" y1="0" x2="1" y2="1">
      <stop offset="0" stop-color="#101827"/>
      <stop offset="0.54" stop-color="#172033"/>
      <stop offset="1" stop-color="#082f2a"/>
    </linearGradient>
    <linearGradient id="accent" x1="0" y1="0" x2="1" y2="1">
      <stop offset="0" stop-color="#38bdf8"/>
      <stop offset="1" stop-color="#22c55e"/>
    </linearGradient>
    <filter id="shadow" x="-20%" y="-20%" width="140%" height="140%">
      <feDropShadow dx="0" dy="22" stdDeviation="24" flood-color="#000" flood-opacity="0.32"/>
    </filter>
  </defs>

  <rect width="1200" height="760" fill="url(#bg)"/>
  <circle cx="160" cy="118" r="210" fill="#38bdf8" opacity="0.12"/>
  <circle cx="1040" cy="650" r="260" fill="#22c55e" opacity="0.14"/>
  <path d="M0 616 C210 540 338 688 560 610 C774 535 910 486 1200 568 L1200 760 L0 760 Z" fill="#020617" opacity="0.28"/>

  <g filter="url(#shadow)">
    <rect x="108" y="96" width="984" height="568" rx="34" fill="#0f172a" stroke="#334155" stroke-width="2"/>
    <rect x="108" y="96" width="984" height="70" rx="34" fill="#111c2f"/>
    <circle cx="156" cy="131" r="10" fill="#ef4444"/>
    <circle cx="188" cy="131" r="10" fill="#f59e0b"/>
    <circle cx="220" cy="131" r="10" fill="#22c55e"/>
    <text x="284" y="140" fill="#dbeafe" font-family="Inter, Arial, sans-serif" font-size="26" font-weight="700">pkiler</text>
    <text x="370" y="140" fill="#94a3b8" font-family="Inter, Arial, sans-serif" font-size="18">AI PDF Slide Reader</text>

    <rect x="150" y="206" width="314" height="390" rx="20" fill="#f8fafc"/>
    <rect x="178" y="238" width="258" height="28" rx="8" fill="#0f172a" opacity="0.88"/>
    <rect x="178" y="288" width="188" height="16" rx="8" fill="#38bdf8" opacity="0.9"/>
    <rect x="178" y="324" width="232" height="12" rx="6" fill="#64748b" opacity="0.45"/>
    <rect x="178" y="350" width="202" height="12" rx="6" fill="#64748b" opacity="0.36"/>
    <rect x="178" y="376" width="238" height="12" rx="6" fill="#64748b" opacity="0.32"/>
    <rect x="178" y="432" width="258" height="112" rx="16" fill="#dbeafe"/>
    <path d="M206 510 L264 462 L318 498 L356 474 L412 526" fill="none" stroke="#0ea5e9" stroke-width="10" stroke-linecap="round" stroke-linejoin="round"/>
    <circle cx="356" cy="462" r="14" fill="#22c55e"/>

    <path d="M500 400 C540 400 552 348 590 348 L626 348" fill="none" stroke="url(#accent)" stroke-width="10" stroke-linecap="round"/>
    <path d="M500 442 C560 442 566 512 626 512" fill="none" stroke="#38bdf8" stroke-width="6" stroke-linecap="round" opacity="0.45"/>
    <polygon points="638,348 616,334 616,362" fill="#22c55e"/>
    <polygon points="638,512 616,498 616,526" fill="#38bdf8" opacity="0.7"/>

    <rect x="668" y="206" width="372" height="390" rx="20" fill="#111827" stroke="#334155"/>
    <text x="700" y="254" fill="#f8fafc" font-family="Inter, Arial, sans-serif" font-size="28" font-weight="800">Explain this slide</text>
    <rect x="700" y="292" width="260" height="16" rx="8" fill="#22c55e" opacity="0.9"/>
    <rect x="700" y="334" width="300" height="13" rx="7" fill="#94a3b8" opacity="0.62"/>
    <rect x="700" y="362" width="284" height="13" rx="7" fill="#94a3b8" opacity="0.52"/>
    <rect x="700" y="390" width="316" height="13" rx="7" fill="#94a3b8" opacity="0.5"/>
    <rect x="700" y="438" width="108" height="38" rx="19" fill="#38bdf8" opacity="0.18" stroke="#38bdf8"/>
    <text x="728" y="463" fill="#bae6fd" font-family="Inter, Arial, sans-serif" font-size="16" font-weight="700">Brief</text>
    <rect x="824" y="438" width="132" height="38" rx="19" fill="#22c55e" opacity="0.2" stroke="#22c55e"/>
    <text x="852" y="463" fill="#bbf7d0" font-family="Inter, Arial, sans-serif" font-size="16" font-weight="700">Detailed</text>
    <rect x="700" y="518" width="236" height="16" rx="8" fill="#f59e0b" opacity="0.86"/>
  </g>

  <text x="108" y="710" fill="#e2e8f0" font-family="Inter, Arial, sans-serif" font-size="34" font-weight="800">PDF in, clear explanation out.</text>
</svg>
